<svg width="1226" height="329" viewBox="0 0 1226 329" fill="none" xmlns="http://www.w3.org/2000/svg">
<path d="M171.657 0C97.2195 5.2944 40.4595 17.3935 40.4595 17.3935C17.9906 21.4046 0 35.5076 0 57.853V275.528C0 297.874 17.9285 311.421 40.4595 315.988C40.4595 315.988 69.3676 322.511 114.011 328.149C122.136 327.075 130.549 325.878 139.184 324.521C182.672 317.791 230.578 306.692 264.286 290.581C286.952 280 301.959 267.395 307.935 257.055C311.474 251.022 313.068 245.84 313.159 238.305C313.018 229.442 311.433 227.999 311.218 227.54C310.9 227.156 309.862 225.686 304.059 223.599C292.744 219.199 266.349 217.97 237.499 218.277C221.15 218.261 203.803 218.328 186.197 216.771C168.605 215.112 150.483 212.146 132.284 203.496C120.258 197.744 108.148 188.896 98.9374 176.502C86.4508 159.95 80.7774 138.71 80.919 117.329C80.8621 97.9746 87.1251 79.8233 96.3286 65.0186C105.565 50.0885 117.49 37.8775 130.695 27.1168C143.212 17.0135 157.02 8.08466 171.657 0V0ZM386.107 9.60438C375.515 12.1711 364.01 15.0778 351.91 18.3488C308.013 30.1571 256.463 46.9674 218.138 66.8947C192.527 79.9002 173.53 94.9638 166.615 105.356C162.501 111.373 161.908 114.53 161.841 117.328C161.981 126.191 163.565 127.634 163.779 128.093C164.099 128.477 165.138 129.948 170.941 132.035C182.257 136.435 208.65 137.663 237.499 137.356C253.85 137.372 271.196 137.305 288.803 138.862C306.395 140.521 324.517 143.487 342.716 152.137C354.742 157.889 366.852 166.738 376.062 179.129C388.548 195.683 394.221 216.923 394.081 238.304C394.368 271.735 379.42 301.786 358.792 322.624C356.968 324.496 355.103 326.314 353.205 328.084C399.489 322.46 434.54 315.988 434.54 315.988C456.886 312.223 475 297.874 475 275.528V57.853C475 35.5077 456.886 21.7128 434.54 17.3935C434.54 17.3935 415.279 13.7576 386.107 9.60438Z" fill="#FF2F63"/>
<path d="M671.826 223.469C671.826 219.27 669.629 215.9 665.234 213.361C660.84 210.822 652.49 208.186 640.186 205.451C627.881 202.717 617.725 199.152 609.717 194.758C601.709 190.266 595.605 184.846 591.406 178.498C587.207 172.15 585.107 164.875 585.107 156.672C585.107 142.121 591.113 130.158 603.125 120.783C615.137 111.311 630.859 106.574 650.293 106.574C671.191 106.574 687.988 111.311 700.684 120.783C713.379 130.256 719.727 142.707 719.727 158.137H670.215C670.215 145.441 663.525 139.094 650.146 139.094C644.971 139.094 640.625 140.559 637.109 143.488C633.594 146.32 631.836 149.885 631.836 154.182C631.836 158.576 633.984 162.141 638.281 164.875C642.578 167.609 649.414 169.855 658.789 171.613C668.262 173.371 676.562 175.471 683.691 177.912C707.52 186.115 719.434 200.812 719.434 222.004C719.434 236.457 712.988 248.225 700.098 257.307C687.305 266.389 670.703 270.93 650.293 270.93C636.719 270.93 624.609 268.488 613.965 263.605C603.32 258.723 595.02 252.082 589.062 243.684C583.105 235.285 580.127 226.447 580.127 217.17H626.27C626.465 224.494 628.906 229.865 633.594 233.283C638.281 236.604 644.287 238.264 651.611 238.264C658.35 238.264 663.379 236.896 666.699 234.162C670.117 231.428 671.826 227.863 671.826 223.469ZM879.541 202.961L895.508 109.504H942.822L905.469 268H863.721L837.5 173.957L811.133 268H769.385L732.031 109.504H779.346L795.02 205.158L820.215 109.504H854.639L879.541 202.961ZM1012.7 268H963.184V109.504H1012.7V268ZM960.254 68.6348C960.254 61.6035 962.793 55.8418 967.871 51.3496C972.949 46.8574 979.541 44.6113 987.646 44.6113C995.752 44.6113 1002.34 46.8574 1007.42 51.3496C1012.5 55.8418 1015.04 61.6035 1015.04 68.6348C1015.04 75.666 1012.5 81.4277 1007.42 85.9199C1002.34 90.4121 995.752 92.6582 987.646 92.6582C979.541 92.6582 972.949 90.4121 967.871 85.9199C962.793 81.4277 960.254 75.666 960.254 68.6348ZM1139.11 154.182L1122.85 153.01C1107.32 153.01 1097.36 157.893 1092.97 167.658V268H1043.6V109.504H1089.89L1091.5 129.865C1099.8 114.338 1111.38 106.574 1126.22 106.574C1131.49 106.574 1136.08 107.16 1139.99 108.332L1139.11 154.182ZM1208.98 268H1159.47V43H1208.98V268Z" fill="#3B3D4F"/>
</svg>
